PathFileType	4	(X/Y/Z)	C:/Users/beibeiliu/ov580/test_trc/User3\sequence.28_training_dense_right.trc
DataRate	CameraRate	NumFrames	NumMarkers	Units	OrigDataRate	OrigDataStartFrame	OrigNumFrames
120	120	20	19	mm	120	1	100
Frame#	Time	ThumbCMC			ThumbMCP			ThumbIP			ThumbTip			IndexMCP			IndexPIP			IndexTip			MiddleMCP			MiddlePIP			MiddleTip			RingMCP			RingPIP			RingTip			PinkyMCP			PinkyPIP			PinkyTip			BackHand1			BackHand2			BackHand3	
		X0	Y0	Z0	X1	Y1	Z1	X2	Y2	Z2	X3	Y3	Z3	X4	Y4	Z4	X5	Y5	Z5	X6	Y6	Z6	X7	Y7	Z7	X8	Y8	Z8	X9	Y9	Z9	X10	Y10	Z10	X11	Y11	Z11	X12	Y12	Z12	X13	Y13	Z13	X14	Y14	Z14	X15	Y15	Z15	X16	Y16	Z16	X17	Y17	Z17	X18	Y18	Z18	
0	0	131.123	25.9663	16.4937	104.963	17.1307	-4.17601	89.4266	7.76266	-28.7039	81.1496	-1.86463	-47.6039	137.414	38.7123	-60.1621	124.999	35.3364	-87.3958	113.782	33.741	-106.044	168.003	37.8068	-66.6796	160.672	38.5599	-94.153	158.565	34.5099	-126.053	185.784	27.1862	-59.9222	188.327	27.7505	-86.137	192.616	23.5225	-113.619	203.742	11.3626	-45.1057	214.683	7.23064	-64.666	225.191	2.13837	-82.4354	188.441	34.709	-11.1594	191.859	39.0294	19.6251	159.152	46.0621	5.81657	
1	0.00833333	128.379	27.3635	11.3081	108.801	17.8109	-4.10792	90.6392	9.54981	-31.0076	77.6879	0.150328	-45.6345	137.173	40.0617	-60.3258	123.051	39.6888	-86.6299	116.152	35.0369	-110.592	164.229	39.8952	-65.752	159.503	40.5805	-98.4456	157.674	37.2871	-128.332	183.328	29.9924	-62.4965	191.882	27.8468	-83.6173	190.498	25.4579	-113.873	202.38	12.068	-45.0834	215.026	8.72572	-66.1757	221.806	4.43003	-87.4039	187.751	34.7336	-11.4434	191.69	37.8407	18.8311	158.672	47.967	2.50781	
2	0.0166667	127.966	28.5663	15.8623	109.222	18.6829	-7.62069	89.4805	11.5423	-30.962	80.7973	2.73675	-48.6641	137.753	41.4027	-61.6177	123.647	41.1989	-83.5916	117.919	36.8732	-108.386	164.316	41.85	-71.521	159.524	42.1103	-98.6792	157.92	37.9399	-130.449	186.305	29.8859	-61.8643	188.25	30.1233	-84.4817	191.194	25.4505	-113.377	203.237	14.6435	-46.8706	214.285	9.3109	-64.498	222.091	6.67457	-84.0953	188.916	35.4821	-13.2896	195.046	38.247	15.2412	161.241	48.6665	3.29977	
3	0.025	126.77	27.8688	12.5128	106.849	18.6358	-5.29476	90.1503	11.0319	-33.1878	78.6229	1.60963	-50.1552	136.117	41.156	-59.8195	122.662	39.495	-88.1935	118.595	35.5623	-110.731	168.243	39.9163	-70.2134	163.139	40.0275	-100.471	160.01	35.7162	-129.168	185.146	31.0246	-63.773	189.932	29.916	-88.987	189.915	25.0528	-114.61	202.774	13.7569	-46.2405	212.719	9.69057	-63.3703	224.481	6.03323	-87.8851	186.667	37.1645	-13.6947	193.135	35.6173	17.6062	157.161	47.7457	-0.394554	
4	0.0333333	125.337	27.56	11.0743	107.471	17.6092	-7.00322	89.8649	10.5265	-32.6096	80.019	0.704282	-52.2197	136.495	40.8633	-63.9745	123.156	40.4044	-85.3116	118.782	35.1557	-110.027	163.474	40.3183	-66.5826	160.284	39.5508	-100.235	156.558	37.1278	-127.398	183.474	28.3595	-59.3911	186.45	30.1141	-89.73	189.807	26.101	-116.293	202.812	11.2449	-44.0712	213.927	9.81974	-68.1228	223.434	4.75264	-88.5959	186.683	34.795	-10.5697	195.857	35.1095	17.3286	161.994	44.8059	3.24071	
5	0.0416667	125.703	28.3186	8.93705	109.194	19.087	-9.3614	92.2485	12.283	-30.6218	81.7726	4.19354	-51.385	134.107	44.0273	-62.3055	126.581	42.8145	-89.3501	112.332	40.9979	-112.253	165.685	42.2517	-67.7634	162.747	43.1597	-97.5839	155.385	41.1602	-126.383	182.562	31.7057	-63.8249	189.082	31.6002	-87.4415	186.944	28.6291	-113.29	204.394	12.493	-48.7498	210.454	10.7902	-66.9213	223.897	4.94257	-91.4375	190.342	33.6126	-14.3282	192.715	34.7506	13.8902	161.685	46.1209	-1.10417	
6	0.05	128.297	30.5387	7.99634	105.921	24.9555	-9.89818	88.0009	19.159	-35.8106	79.0647	9.7922	-54.3723	137.072	48.3827	-63.9961	123.428	49.7867	-89.4754	119.335	45.905	-113.527	164.794	46.8466	-69.5495	162.071	47.4948	-98.3587	157.455	45.71	-129.397	187.222	31.6451	-65.1881	190.362	31.35	-89.2457	190.381	27.9231	-114.966	200.497	12.1927	-49.0291	212.13	5.06083	-71.3484	218.786	-2.32135	-95.2551	188.424	36.375	-12.3723	191.268	34.8934	15.2852	160.942	48.2048	-1.17204	
7	0.0583333	130.724	32.795	10.0548	110.175	28.0082	-13.6898	93.9838	23.0261	-39.0096	84.7084	15.4272	-61.0092	142.097	53.211	-65.3245	133.106	52.3758	-93.6453	124.159	51.4845	-117.499	173.253	47.1398	-72.2756	170.048	49.8015	-100.654	168.752	48.3533	-134.54	191.932	29.669	-67.1762	195.158	28.2183	-92.6085	190.061	24.3751	-117.324	202.694	9.30464	-49.8964	208.623	1.73098	-72.2123	211.402	-13.1576	-96.6087	192.765	36.4832	-17.2054	195.881	32.7071	16.5745	164.44	50.1379	1.18697	
8	0.0666667	140.856	34.445	2.35973	118.194	31.3379	-16.9917	104.53	27.094	-41.442	93.3358	20.1053	-62.9283	156.616	51.1046	-69.4638	146.97	53.1244	-95.1384	140.985	49.3701	-116.754	186.432	42.7808	-71.4109	185.06	45.3924	-103.962	181.262	44.6458	-129.881	195.872	23.8023	-64.5789	196.256	18.549	-92.8633	185.721	2.82087	-119.871	205.055	-1.74679	-54.2253	200.031	-12.8831	-77.1502	191.492	-32.4005	-91.1134	204.481	26.6962	-16.5363	205.085	23.5337	12.7564	177.246	44.8975	0.314014	
9	0.075	145.361	36.4991	5.73088	123.254	32.317	-19.3238	108.749	28.9511	-43.3888	99.5065	20.1023	-66.9486	168.884	42.3583	-71.4765	157.804	45.5482	-94.5409	149.644	38.3703	-121.727	192.155	33.0435	-74.9964	192.014	30.1698	-105.513	186.481	27.1512	-132.604	196.218	7.21555	-66.4431	187.379	-2.97821	-93.2914	164.212	-22.1452	-105.351	199.382	-19.1542	-54.6436	184.582	-30.4471	-73.0047	162.22	-42.7268	-79.8832	203.049	16.3132	-14.8162	207.532	12.3243	11.4501	187.376	38.1071	-0.417408	
10	0.0833333	148.729	31.2886	2.06914	122.476	30.6406	-21.9767	106.329	23.4939	-45.7896	102.718	7.93914	-67.4268	170.169	34.7424	-68.3216	160.531	34.6317	-100.056	155.419	25.2596	-120.882	192.017	17.378	-75.2731	190.911	12.2631	-103.334	177.655	2.25999	-132.179	188.872	-10.0411	-69.7038	171.646	-24.5329	-87.3337	143.17	-39.0156	-80.8572	190.109	-31.3306	-52.704	169.604	-40.6863	-65.7045	140.918	-49.9338	-61.0445	203.032	7.00819	-13.5152	207.044	6.01985	15.5395	186.141	30.0303	-1.10141	
11	0.0916667	144.943	28.3525	6.89506	124.241	23.8269	-19.0939	107.159	15.2498	-48.8648	106.32	-4.31123	-68.2307	167.208	34.0657	-69.8232	160.923	31.8054	-99.9166	146.703	21.3011	-122.022	185.646	16.2106	-73.058	180.232	6.72167	-106.333	156.129	-8.26761	-126.687	180.601	-14.3879	-68.8271	159.125	-31.9316	-79.4713	131.703	-39.2493	-59.3838	181.389	-30.4583	-55.807	158.243	-45.0295	-61.4563	135.956	-49.4663	-44.9797	202.212	2.32289	-19.687	204.092	2.60949	13.0079	181.755	30.2214	-5.46366	
12	0.1	143.531	30.5206	4.86112	122.831	24.9501	-21.1364	108.796	15.2237	-45.8095	110.788	-4.82402	-65.4659	168.886	40.023	-71.2152	160.787	37.4924	-100.67	140.541	28.5969	-116.154	181.49	18.5706	-80.7577	166.768	3.07309	-107.16	137.086	-14.4156	-107.356	173.218	-12.3616	-71.7758	148.364	-31.7196	-74.6712	129.031	-29.8324	-48.5372	178.3	-30.9381	-59.1774	152.525	-39.5239	-61.3684	134.498	-38.0656	-37.9723	201.317	4.79179	-21.488	202.445	0.908612	9.17149	183.78	31.1315	-3.28263	
13	0.108333	152.497	31.884	-3.0255	127.591	32.3412	-26.77	115.257	23.2502	-52.1052	111.164	3.61695	-68.2911	175.494	34.0957	-73.9104	165.828	34.9311	-106.04	135.899	24.7299	-117.696	180.07	8.98979	-82.7181	155.986	0.125965	-105.667	123.878	-12.6421	-82.6391	166.945	-16.8885	-75.5507	138.915	-22.0356	-74.7209	129.574	-21.378	-44.3395	171.76	-33.7072	-59.8637	141.229	-36.4901	-58.333	131.993	-28.3546	-35.6774	200.221	-1.37814	-23.929	203.127	-4.34067	2.65924	189.523	29.1817	-9.06454	
14	0.116667	166.492	37.5162	-9.95965	143.707	47.7049	-32.167	128.754	42.1548	-58.3849	116.698	23.4769	-78.9913	183.873	23.7409	-85.5897	168.855	20.9383	-114.116	141.267	23.3388	-122.3	167.978	2.89345	-88.8925	137.863	-1.74512	-98.645	120.619	3.21126	-61.4919	155.305	-20.1175	-75.4514	124.891	-15.3853	-67.2805	131.037	-4.0341	-36.5994	155.019	-34.177	-60.4467	126.434	-30.6507	-57.4091	127.048	-14.4535	-28.2957	195.666	-18.1301	-30.804	200.803	-14.4695	-1.04544	196.656	17.3308	-20.6103	
15	0.125	186.874	33.4985	-16.426	170.773	47.4854	-37.9193	156.674	55.5417	-62.965	139.244	51.3019	-81.6468	182.786	6.38226	-89.6222	166.277	7.73421	-117.454	143.432	16.4551	-130.307	152.628	-1.88926	-87.7308	124.812	15.0678	-83.1167	127.567	22.6143	-46.9355	141.609	-13.2721	-73.4273	116.175	-3.0706	-61.7937	132.493	7.52538	-31.0419	136.177	-31.0759	-57.9208	114.227	-13.9402	-53.1909	123.688	1.62721	-27.785	184.188	-33.3914	-31.5127	191.463	-32.7969	-5.14378	201.53	-0.102926	-22.6988	
16	0.133333	201.273	15.4623	-16.4483	198.621	35.2711	-41.8359	188.785	44.9655	-69.0054	177.838	54.9044	-87.8992	175.864	-6.23456	-89.6762	162.785	-1.59612	-113.889	141.328	4.59653	-132.055	149.386	-0.342047	-80.5542	130.807	27.7506	-74.4691	138.378	32.6003	-37.4479	136.924	-9.2141	-64.99	120.628	17.9343	-53.7703	141.146	22.2276	-26.8694	125.168	-23.5907	-49.8441	112.902	5.03809	-49.8514	127.422	18.8912	-27.7517	171.331	-40.1601	-28.3634	180.585	-42.7571	0.542521	199.358	-18.7875	-22.2539	
17	0.141667	214.108	-2.13355	-16.6331	215.079	13.8992	-41.3887	220.431	28.0116	-64.4406	217.723	39.1347	-83.5397	172.291	-11.328	-85.302	161.311	-4.63477	-107.509	148.571	2.38847	-126.577	148.38	4.51384	-75.3729	141.338	36.8928	-68.5266	155.158	47.2319	-35.3081	137.224	-0.282648	-62.9012	128.383	29.7112	-50.8332	147.856	36.322	-28.5908	123.435	-11.1423	-47.9148	116.025	16.8108	-48.7683	127.371	34.4211	-28.9825	160.802	-42.8376	-24.0873	172.233	-48.2275	5.61481	198.444	-31.0605	-21.0747	
18	0.15	221.795	-13.8769	-7.44428	227.772	0.192959	-34.8393	237.501	13.3686	-56.7792	241.373	24.6005	-77.3202	183.824	-10.002	-80.9025	174.918	-1.99385	-102.727	161.874	6.94239	-126.862	158.133	5.32453	-76.6636	149.757	34.1252	-76.553	154.833	58.9233	-44.8921	139.002	-1.94512	-58.6146	133.494	29.3544	-62.4224	147.683	49.4746	-37.4233	127.141	-8.5439	-42.2043	119.774	20.6351	-51.5491	126.825	41.4596	-38.6504	162.005	-40.4806	-24.193	169.69	-46.9434	5.45084	194.528	-38.4029	-17.6638	
19	0.158333	222.761	-17.0884	-4.87676	231.372	-5.00595	-29.0097	242.237	7.22731	-49.2599	251.33	18.8462	-69.3097	193.567	-6.62418	-75.587	191.098	4.56733	-101.15	188.156	15.647	-122.842	161.723	2.63832	-76.3621	157.397	32.2784	-85.4979	156.179	67.1831	-70.9945	144.828	0.122079	-64.1256	139.896	26.7103	-73.8384	141.884	57.8741	-60.4949	132	-6.60223	-42.0473	119.088	15.8419	-53.6361	122.821	45.3424	-55.101	163.769	-38.9421	-25.4852	166.703	-48.4057	3.35361	195.66	-39.6491	-13.0977	
